<?xml version="1.0" encoding="utf-8"?>
<!-- Generator: Adobe Illustrator 15.1.0, SVG Export Plug-In . SVG Version: 6.00 Build 0)  -->
<!DOCTYPE svg PUBLIC "-//W3C//DTD SVG 1.1//EN" "http://www.w3.org/Graphics/SVG/1.1/DTD/svg11.dtd">
<svg version="1.1" id="Livello_1" xmlns="http://www.w3.org/2000/svg" xmlns:xlink="http://www.w3.org/1999/xlink" x="0px" y="0px"
	 width="960.052px" height="417.01px" viewBox="0 0 960.052 417.01" enable-background="new 0 0 960.052 417.01"
	 xml:space="preserve">
<g opacity="0.75">
	<g>
		<defs>
			<rect id="SVGID_1_" width="960.052" height="417.01"/>
		</defs>
		<clipPath id="SVGID_2_">
			<use xlink:href="#SVGID_1_"  overflow="visible"/>
		</clipPath>
		<path clip-path="url(#SVGID_2_)" fill="#FFFFFF" d="M142.059,94.416c0,0.181,0.153,0.327,0.343,0.327h6.324
			c0.185,0,0.34-0.146,0.34-0.327v-53.64c0-0.178-0.147-0.37-0.328-0.423c0,0-1.132-0.338-3.176-0.338
			c-2.024,0-3.177,0.34-3.177,0.34c-0.179,0.051-0.326,0.243-0.326,0.421V94.416z"/>
		<path clip-path="url(#SVGID_2_)" fill="#FFFFFF" d="M124.945,94.197c0,0.3,0.258,0.545,0.571,0.545h13.775
			c0.311,0,0.566-0.245,0.566-0.545V35.585c0-0.3-0.245-0.616-0.542-0.7c0,0-2.434-0.688-6.813-0.688
			c-4.176,0-7.006,0.705-7.006,0.705c-0.301,0.075-0.551,0.383-0.551,0.683V94.197z"/>
		<path clip-path="url(#SVGID_2_)" fill="#FFFFFF" d="M95.224,94.197c0,0.3,0.254,0.545,0.568,0.545h13.777
			c0.309,0,0.568-0.245,0.568-0.545V41.354c0-0.3-0.251-0.606-0.552-0.676c0,0-2.778-0.663-6.905-0.663
			c-4.402,0-6.909,0.652-6.909,0.652c-0.301,0.077-0.547,0.387-0.547,0.687V94.197z"/>
		<path clip-path="url(#SVGID_2_)" fill="#FFFFFF" d="M77.711,94.197c0,0.3,0.254,0.545,0.565,0.545h13.578
			c0.311,0,0.569-0.245,0.569-0.545V35.585c0-0.3-0.251-0.6-0.554-0.667c0,0-3.192-0.696-6.76-0.696
			c-4.094,0-6.849,0.681-6.849,0.681c-0.302,0.074-0.549,0.382-0.549,0.682V94.197z"/>
		<path clip-path="url(#SVGID_2_)" fill="#FFFFFF" d="M24.371,94.197c0,0.3,0.254,0.545,0.567,0.545h13.678
			c0.312,0,0.568-0.245,0.568-0.545V36.161c0-0.299-0.252-0.596-0.558-0.658c0,0-3.122-0.639-6.849-0.639
			c-3.878,0-6.851,0.634-6.851,0.634c-0.305,0.065-0.555,0.364-0.555,0.663V94.197z"/>
		<path clip-path="url(#SVGID_2_)" fill="#FFFFFF" d="M21.869,94.307c0,0.24-0.205,0.436-0.454,0.436h-9.698
			c-0.252,0-0.456-0.196-0.456-0.436V41.046c0-0.241,0.199-0.479,0.443-0.53c0,0,2.408-0.501,4.862-0.501
			c2.297,0,4.859,0.507,4.859,0.507c0.243,0.047,0.444,0.283,0.444,0.524V94.307z"/>
		<path clip-path="url(#SVGID_2_)" fill="#FFFFFF" d="M44.424,94.416c0.011,0.181,0.169,0.319,0.358,0.311l5.116-0.259
			c0.189-0.008,0.332-0.163,0.323-0.343L47.35,41.493c-0.01-0.179-0.169-0.354-0.353-0.388c0,0-1.132-0.206-2.653-0.116
			c-1.566,0.091-2.485,0.37-2.485,0.37c-0.179,0.056-0.317,0.246-0.305,0.426L44.424,94.416z"/>
		<path clip-path="url(#SVGID_2_)" fill="#FFFFFF" d="M62.793,93.725c0.02,0.179-0.117,0.341-0.304,0.359l-6.19,0.624
			c-0.184,0.019-0.351-0.11-0.374-0.29L50.23,42.354c-0.02-0.179,0.108-0.374,0.286-0.433c0,0,1.302-0.431,2.901-0.586
			c1.786-0.175,3.305-0.032,3.305-0.032c0.187,0.017,0.356,0.179,0.374,0.357L62.793,93.725z"/>
		<path clip-path="url(#SVGID_2_)" fill="#FFFFFF" d="M112.204,93.92c-0.012,0.179,0.128,0.336,0.314,0.348l6.211,0.418
			c0.186,0.012,0.35-0.125,0.363-0.305l3.802-52.223c0.012-0.18-0.121-0.38-0.295-0.444c0,0-1.128-0.414-3.08-0.545
			c-2.127-0.145-3.163,0.118-3.163,0.118c-0.181,0.045-0.338,0.23-0.353,0.408L112.204,93.92z"/>
		<path clip-path="url(#SVGID_2_)" fill="#FFFFFF" d="M75.51,94.307c0,0.24-0.205,0.436-0.454,0.436h-9.701
			c-0.251,0-0.453-0.196-0.453-0.436V41.101c0-0.24,0.195-0.492,0.435-0.559c0,0,1.84-0.527,4.869-0.527
			c2.995,0,4.867,0.528,4.867,0.528c0.239,0.066,0.437,0.318,0.437,0.558V94.307z"/>
		<path clip-path="url(#SVGID_2_)" fill="#FFFFFF" d="M19.748,197.445c0,0.181-0.154,0.327-0.342,0.327h-6.325
			c-0.186,0-0.34-0.146-0.34-0.327v-53.64c0-0.178,0.147-0.37,0.327-0.423c0,0,1.133-0.338,3.177-0.338
			c2.024,0,3.176,0.34,3.176,0.34c0.179,0.051,0.327,0.243,0.327,0.421V197.445z"/>
		<path clip-path="url(#SVGID_2_)" fill="#FFFFFF" d="M36.86,197.227c0,0.3-0.257,0.545-0.57,0.545H22.514
			c-0.311,0-0.565-0.245-0.565-0.545v-58.612c0-0.3,0.245-0.616,0.542-0.7c0,0,2.434-0.688,6.812-0.688
			c4.177,0,7.007,0.705,7.007,0.705c0.301,0.075,0.55,0.383,0.55,0.683V197.227z"/>
		<path clip-path="url(#SVGID_2_)" fill="#FFFFFF" d="M66.582,197.227c0,0.3-0.254,0.545-0.567,0.545H52.237
			c-0.309,0-0.567-0.245-0.567-0.545v-52.844c0-0.3,0.25-0.606,0.552-0.676c0,0,2.776-0.663,6.905-0.663
			c4.402,0,6.908,0.652,6.908,0.652c0.301,0.077,0.547,0.387,0.547,0.687V197.227z"/>
		<path clip-path="url(#SVGID_2_)" fill="#FFFFFF" d="M84.095,197.227c0,0.3-0.255,0.545-0.565,0.545H69.951
			c-0.311,0-0.568-0.245-0.568-0.545v-58.612c0-0.3,0.252-0.6,0.553-0.667c0,0,3.192-0.696,6.761-0.696
			c4.094,0,6.849,0.681,6.849,0.681c0.302,0.074,0.549,0.382,0.549,0.682V197.227z"/>
		<path clip-path="url(#SVGID_2_)" fill="#FFFFFF" d="M137.436,197.227c0,0.3-0.256,0.545-0.567,0.545h-13.68
			c-0.311,0-0.566-0.245-0.566-0.545V139.19c0-0.299,0.252-0.596,0.558-0.658c0,0,3.122-0.639,6.848-0.639
			c3.879,0,6.852,0.634,6.852,0.634c0.305,0.065,0.555,0.364,0.555,0.663V197.227z"/>
		<path clip-path="url(#SVGID_2_)" fill="#FFFFFF" d="M139.938,197.336c0,0.24,0.203,0.436,0.454,0.436h9.698
			c0.252,0,0.455-0.196,0.455-0.436v-53.261c0-0.241-0.2-0.479-0.444-0.53c0,0-2.406-0.501-4.861-0.501
			c-2.297,0-4.858,0.507-4.858,0.507c-0.245,0.047-0.444,0.283-0.444,0.524V197.336z"/>
		<path clip-path="url(#SVGID_2_)" fill="#FFFFFF" d="M117.383,197.445c-0.011,0.181-0.17,0.319-0.36,0.311l-5.114-0.258
			c-0.189-0.009-0.334-0.164-0.323-0.343l2.87-52.633c0.01-0.179,0.169-0.354,0.352-0.388c0,0,1.133-0.206,2.653-0.116
			c1.568,0.091,2.487,0.37,2.487,0.37c0.179,0.056,0.315,0.246,0.305,0.426L117.383,197.445z"/>
		<path clip-path="url(#SVGID_2_)" fill="#FFFFFF" d="M99.014,196.754c-0.021,0.179,0.117,0.341,0.303,0.359l6.191,0.624
			c0.182,0.019,0.351-0.11,0.374-0.29l5.694-52.064c0.021-0.179-0.107-0.374-0.286-0.433c0,0-1.301-0.431-2.901-0.586
			c-1.786-0.175-3.305-0.032-3.305-0.032c-0.188,0.017-0.356,0.179-0.373,0.357L99.014,196.754z"/>
		<path clip-path="url(#SVGID_2_)" fill="#FFFFFF" d="M49.602,196.95c0.013,0.178-0.128,0.336-0.314,0.347l-6.21,0.418
			c-0.187,0.012-0.351-0.124-0.365-0.304l-3.8-52.223c-0.013-0.18,0.121-0.38,0.294-0.445c0,0,1.129-0.413,3.081-0.544
			c2.127-0.145,3.162,0.117,3.162,0.117c0.18,0.046,0.339,0.23,0.353,0.408L49.602,196.95z"/>
		<path clip-path="url(#SVGID_2_)" fill="#FFFFFF" d="M86.297,197.336c0,0.24,0.205,0.436,0.454,0.436h9.701
			c0.25,0,0.453-0.196,0.453-0.436v-53.206c0-0.24-0.196-0.492-0.435-0.559c0,0-1.841-0.527-4.869-0.527
			c-2.996,0-4.867,0.528-4.867,0.528c-0.241,0.066-0.437,0.318-0.437,0.558V197.336z"/>
		<rect x="158.059" y="0.002" clip-path="url(#SVGID_2_)" fill="#FFFFFF" width="8.592" height="408.514"/>
		<rect x="0" y="93.518" clip-path="url(#SVGID_2_)" fill="#FFFFFF" width="960.052" height="8.49"/>
		<rect x="0" y="199.546" clip-path="url(#SVGID_2_)" fill="#FFFFFF" width="960.052" height="8.49"/>
		<rect x="0" y="305.574" clip-path="url(#SVGID_2_)" fill="#FFFFFF" width="960.052" height="8.49"/>
		<rect x="0" y="408.52" clip-path="url(#SVGID_2_)" fill="#FFFFFF" width="960.052" height="8.49"/>
		<path clip-path="url(#SVGID_2_)" fill="#FFFFFF" d="M178.979,94.416c0,0.181-0.154,0.327-0.341,0.327h-6.326
			c-0.186,0-0.34-0.146-0.34-0.327v-53.64c0-0.178,0.148-0.37,0.327-0.423c0,0,1.132-0.338,3.177-0.338
			c2.023,0,3.176,0.34,3.176,0.34c0.179,0.051,0.327,0.243,0.327,0.421V94.416z"/>
		<path clip-path="url(#SVGID_2_)" fill="#FFFFFF" d="M196.092,94.197c0,0.3-0.256,0.545-0.57,0.545h-13.776
			c-0.31,0-0.566-0.245-0.566-0.545V35.585c0-0.3,0.245-0.616,0.545-0.7c0,0,2.432-0.688,6.81-0.688
			c4.178,0,7.007,0.705,7.007,0.705c0.302,0.075,0.55,0.383,0.55,0.683V94.197z"/>
		<path clip-path="url(#SVGID_2_)" fill="#FFFFFF" d="M225.814,94.197c0,0.3-0.255,0.545-0.567,0.545H211.47
			c-0.312,0-0.568-0.245-0.568-0.545V41.354c0-0.3,0.248-0.606,0.55-0.676c0,0,2.778-0.663,6.907-0.663
			c4.401,0,6.907,0.652,6.907,0.652c0.302,0.077,0.548,0.387,0.548,0.687V94.197z"/>
		<path clip-path="url(#SVGID_2_)" fill="#FFFFFF" d="M243.326,94.197c0,0.3-0.255,0.545-0.565,0.545h-13.578
			c-0.311,0-0.569-0.245-0.569-0.545V35.585c0-0.3,0.251-0.6,0.553-0.667c0,0,3.192-0.696,6.76-0.696
			c4.096,0,6.849,0.681,6.849,0.681c0.303,0.074,0.55,0.382,0.55,0.682V94.197z"/>
		<path clip-path="url(#SVGID_2_)" fill="#FFFFFF" d="M296.666,94.197c0,0.3-0.253,0.545-0.565,0.545H282.42
			c-0.31,0-0.565-0.245-0.565-0.545V36.161c0-0.299,0.251-0.596,0.556-0.658c0,0,3.122-0.639,6.849-0.639
			c3.879,0,6.852,0.634,6.852,0.634c0.304,0.065,0.554,0.364,0.554,0.663V94.197z"/>
		<path clip-path="url(#SVGID_2_)" fill="#FFFFFF" d="M299.168,94.307c0,0.24,0.204,0.436,0.454,0.436h9.7
			c0.249,0,0.454-0.196,0.454-0.436V41.046c0-0.241-0.2-0.479-0.444-0.53c0,0-2.406-0.501-4.861-0.501
			c-2.296,0-4.857,0.507-4.857,0.507c-0.246,0.047-0.446,0.283-0.446,0.524V94.307z"/>
		<path clip-path="url(#SVGID_2_)" fill="#FFFFFF" d="M276.614,94.416c-0.012,0.181-0.169,0.319-0.36,0.311l-5.115-0.259
			c-0.188-0.008-0.331-0.163-0.323-0.343l2.871-52.632c0.01-0.179,0.169-0.354,0.353-0.388c0,0,1.133-0.206,2.654-0.116
			c1.565,0.091,2.485,0.37,2.485,0.37c0.179,0.056,0.316,0.246,0.305,0.426L276.614,94.416z"/>
		<path clip-path="url(#SVGID_2_)" fill="#FFFFFF" d="M258.246,93.725c-0.021,0.179,0.116,0.341,0.303,0.359l6.189,0.624
			c0.185,0.019,0.352-0.11,0.376-0.29l5.695-52.064c0.02-0.179-0.109-0.374-0.288-0.433c0,0-1.302-0.431-2.9-0.586
			c-1.786-0.175-3.305-0.032-3.305-0.032c-0.189,0.017-0.356,0.179-0.375,0.357L258.246,93.725z"/>
		<path clip-path="url(#SVGID_2_)" fill="#FFFFFF" d="M208.833,93.92c0.014,0.179-0.128,0.336-0.314,0.348l-6.211,0.418
			c-0.185,0.012-0.35-0.125-0.364-0.305l-3.799-52.223c-0.014-0.18,0.119-0.38,0.292-0.444c0,0,1.131-0.414,3.083-0.545
			c2.126-0.145,3.161,0.118,3.161,0.118c0.181,0.045,0.339,0.23,0.353,0.408L208.833,93.92z"/>
		<path clip-path="url(#SVGID_2_)" fill="#FFFFFF" d="M245.528,94.307c0,0.24,0.205,0.436,0.454,0.436h9.701
			c0.251,0,0.452-0.196,0.452-0.436V41.101c0-0.24-0.195-0.492-0.434-0.559c0,0-1.841-0.527-4.868-0.527
			c-2.997,0-4.869,0.528-4.869,0.528c-0.24,0.066-0.436,0.318-0.436,0.558V94.307z"/>
		<rect x="318.769" y="0.002" clip-path="url(#SVGID_2_)" fill="#FFFFFF" width="8.592" height="408.514"/>
		<path clip-path="url(#SVGID_2_)" fill="#FFFFFF" d="M464.423,94.416c0,0.181,0.154,0.327,0.343,0.327h6.325
			c0.186,0,0.34-0.146,0.34-0.327v-53.64c0-0.178-0.148-0.37-0.327-0.423c0,0-1.133-0.338-3.176-0.338
			c-2.025,0-3.178,0.34-3.178,0.34c-0.179,0.051-0.327,0.243-0.327,0.421V94.416z"/>
		<path clip-path="url(#SVGID_2_)" fill="#FFFFFF" d="M447.311,94.197c0,0.3,0.257,0.545,0.57,0.545h13.775
			c0.311,0,0.567-0.245,0.567-0.545V35.585c0-0.3-0.246-0.616-0.544-0.7c0,0-2.432-0.688-6.812-0.688
			c-4.176,0-7.006,0.705-7.006,0.705c-0.301,0.075-0.55,0.383-0.55,0.683V94.197z"/>
		<path clip-path="url(#SVGID_2_)" fill="#FFFFFF" d="M417.59,94.197c0,0.3,0.253,0.545,0.567,0.545h13.777
			c0.31,0,0.568-0.245,0.568-0.545V41.354c0-0.3-0.25-0.606-0.551-0.676c0,0-2.779-0.663-6.907-0.663
			c-4.401,0-6.908,0.652-6.908,0.652c-0.3,0.077-0.546,0.387-0.546,0.687V94.197z"/>
		<path clip-path="url(#SVGID_2_)" fill="#FFFFFF" d="M400.077,94.197c0,0.3,0.254,0.545,0.565,0.545h13.577
			c0.312,0,0.569-0.245,0.569-0.545V35.585c0-0.3-0.25-0.6-0.553-0.667c0,0-3.192-0.696-6.76-0.696
			c-4.095,0-6.849,0.681-6.849,0.681c-0.302,0.074-0.549,0.382-0.549,0.682V94.197z"/>
		<path clip-path="url(#SVGID_2_)" fill="#FFFFFF" d="M346.736,94.197c0,0.3,0.254,0.545,0.566,0.545h13.68
			c0.311,0,0.566-0.245,0.566-0.545V36.161c0-0.299-0.252-0.596-0.556-0.658c0,0-3.123-0.639-6.849-0.639
			c-3.88,0-6.853,0.634-6.853,0.634c-0.304,0.065-0.554,0.364-0.554,0.663V94.197z"/>
		<path clip-path="url(#SVGID_2_)" fill="#FFFFFF" d="M344.233,94.307c0,0.24-0.204,0.436-0.454,0.436h-9.698
			c-0.251,0-0.456-0.196-0.456-0.436V41.046c0-0.241,0.201-0.479,0.444-0.53c0,0,2.408-0.501,4.861-0.501
			c2.298,0,4.859,0.507,4.859,0.507c0.244,0.047,0.444,0.283,0.444,0.524V94.307z"/>
		<path clip-path="url(#SVGID_2_)" fill="#FFFFFF" d="M366.788,94.416c0.012,0.181,0.17,0.319,0.36,0.311l5.115-0.259
			c0.189-0.008,0.331-0.163,0.323-0.343l-2.871-52.632c-0.01-0.179-0.169-0.354-0.353-0.388c0,0-1.133-0.206-2.653-0.116
			c-1.566,0.091-2.485,0.37-2.485,0.37c-0.179,0.056-0.317,0.246-0.305,0.426L366.788,94.416z"/>
		<path clip-path="url(#SVGID_2_)" fill="#FFFFFF" d="M385.158,93.725c0.021,0.179-0.118,0.341-0.303,0.359l-6.19,0.624
			c-0.185,0.019-0.352-0.11-0.375-0.29l-5.695-52.064c-0.02-0.179,0.109-0.374,0.286-0.433c0,0,1.303-0.431,2.901-0.586
			c1.788-0.175,3.306-0.032,3.306-0.032c0.187,0.017,0.356,0.179,0.374,0.357L385.158,93.725z"/>
		<path clip-path="url(#SVGID_2_)" fill="#FFFFFF" d="M434.57,93.92c-0.014,0.179,0.128,0.336,0.313,0.348l6.21,0.418
			c0.187,0.012,0.352-0.125,0.364-0.305l3.801-52.223c0.014-0.18-0.121-0.38-0.293-0.444c0,0-1.129-0.414-3.082-0.545
			c-2.126-0.145-3.162,0.118-3.162,0.118c-0.181,0.045-0.338,0.23-0.352,0.408L434.57,93.92z"/>
		<path clip-path="url(#SVGID_2_)" fill="#FFFFFF" d="M397.875,94.307c0,0.24-0.205,0.436-0.455,0.436h-9.701
			c-0.25,0-0.452-0.196-0.452-0.436V41.101c0-0.24,0.195-0.492,0.435-0.559c0,0,1.84-0.527,4.868-0.527
			c2.996,0,4.868,0.528,4.868,0.528c0.24,0.066,0.437,0.318,0.437,0.558V94.307z"/>
		<rect x="480.423" y="0.002" clip-path="url(#SVGID_2_)" fill="#FFFFFF" width="8.592" height="408.514"/>
		<rect x="641.57" y="0.002" clip-path="url(#SVGID_2_)" fill="#FFFFFF" width="8.592" height="408.514"/>
		<path clip-path="url(#SVGID_2_)" fill="#FFFFFF" d="M786.28,94.416c0,0.181,0.155,0.327,0.342,0.327h6.326
			c0.186,0,0.34-0.146,0.34-0.327v-53.64c0-0.178-0.147-0.37-0.327-0.423c0,0-1.133-0.338-3.176-0.338
			c-2.025,0-3.177,0.34-3.177,0.34c-0.181,0.051-0.328,0.243-0.328,0.421V94.416z"/>
		<path clip-path="url(#SVGID_2_)" fill="#FFFFFF" d="M769.167,94.197c0,0.3,0.257,0.545,0.57,0.545h13.775
			c0.311,0,0.566-0.245,0.566-0.545V35.585c0-0.3-0.244-0.616-0.545-0.7c0,0-2.431-0.688-6.811-0.688
			c-4.177,0-7.005,0.705-7.005,0.705c-0.303,0.075-0.552,0.383-0.552,0.683V94.197z"/>
		<path clip-path="url(#SVGID_2_)" fill="#FFFFFF" d="M739.447,94.197c0,0.3,0.254,0.545,0.566,0.545h13.776
			c0.312,0,0.568-0.245,0.568-0.545V41.354c0-0.3-0.249-0.606-0.551-0.676c0,0-2.778-0.663-6.905-0.663
			c-4.403,0-6.908,0.652-6.908,0.652c-0.301,0.077-0.547,0.387-0.547,0.687V94.197z"/>
		<path clip-path="url(#SVGID_2_)" fill="#FFFFFF" d="M721.934,94.197c0,0.3,0.254,0.545,0.564,0.545h13.577
			c0.312,0,0.569-0.245,0.569-0.545V35.585c0-0.3-0.25-0.6-0.553-0.667c0,0-3.192-0.696-6.761-0.696
			c-4.095,0-6.849,0.681-6.849,0.681c-0.303,0.074-0.549,0.382-0.549,0.682V94.197z"/>
		<path clip-path="url(#SVGID_2_)" fill="#FFFFFF" d="M668.593,94.197c0,0.3,0.254,0.545,0.566,0.545h13.679
			c0.312,0,0.566-0.245,0.566-0.545V36.161c0-0.299-0.252-0.596-0.556-0.658c0,0-3.123-0.639-6.849-0.639
			c-3.88,0-6.854,0.634-6.854,0.634c-0.304,0.065-0.554,0.364-0.554,0.663V94.197z"/>
		<path clip-path="url(#SVGID_2_)" fill="#FFFFFF" d="M666.09,94.307c0,0.24-0.204,0.436-0.453,0.436h-9.7
			c-0.25,0-0.455-0.196-0.455-0.436V41.046c0-0.241,0.201-0.479,0.445-0.53c0,0,2.406-0.501,4.861-0.501
			c2.296,0,4.857,0.507,4.857,0.507c0.245,0.047,0.444,0.283,0.444,0.524V94.307z"/>
		<path clip-path="url(#SVGID_2_)" fill="#FFFFFF" d="M688.645,94.416c0.012,0.181,0.171,0.319,0.36,0.311l5.114-0.259
			c0.189-0.008,0.332-0.163,0.323-0.343l-2.871-52.632c-0.01-0.179-0.169-0.354-0.353-0.388c0,0-1.133-0.206-2.653-0.116
			c-1.566,0.091-2.485,0.37-2.485,0.37c-0.179,0.056-0.316,0.246-0.306,0.426L688.645,94.416z"/>
		<path clip-path="url(#SVGID_2_)" fill="#FFFFFF" d="M707.015,93.725c0.021,0.179-0.117,0.341-0.305,0.359l-6.189,0.624
			c-0.185,0.019-0.352-0.11-0.374-0.29l-5.695-52.064c-0.021-0.179,0.109-0.374,0.286-0.433c0,0,1.303-0.431,2.902-0.586
			c1.785-0.175,3.306-0.032,3.306-0.032c0.186,0.017,0.354,0.179,0.373,0.357L707.015,93.725z"/>
		<path clip-path="url(#SVGID_2_)" fill="#FFFFFF" d="M756.427,93.92c-0.015,0.179,0.127,0.336,0.312,0.348l6.212,0.418
			c0.186,0.012,0.352-0.125,0.364-0.305l3.8-52.223c0.015-0.18-0.12-0.38-0.295-0.444c0,0-1.128-0.414-3.08-0.545
			c-2.126-0.145-3.161,0.118-3.161,0.118c-0.182,0.045-0.339,0.23-0.354,0.408L756.427,93.92z"/>
		<path clip-path="url(#SVGID_2_)" fill="#FFFFFF" d="M719.732,94.307c0,0.24-0.205,0.436-0.455,0.436h-9.7
			c-0.25,0-0.452-0.196-0.452-0.436V41.101c0-0.24,0.194-0.492,0.435-0.559c0,0,1.841-0.527,4.868-0.527
			c2.995,0,4.868,0.528,4.868,0.528c0.24,0.066,0.437,0.318,0.437,0.558V94.307z"/>
		<rect x="802.281" y="0.002" clip-path="url(#SVGID_2_)" fill="#FFFFFF" width="8.592" height="408.514"/>
		<path clip-path="url(#SVGID_2_)" fill="#FFFFFF" d="M824.144,94.416c0,0.181-0.153,0.327-0.341,0.327h-6.326
			c-0.185,0-0.34-0.146-0.34-0.327v-53.64c0-0.178,0.146-0.37,0.328-0.423c0,0,1.132-0.338,3.175-0.338
			c2.025,0,3.178,0.34,3.178,0.34c0.179,0.051,0.326,0.243,0.326,0.421V94.416z"/>
		<path clip-path="url(#SVGID_2_)" fill="#FFFFFF" d="M841.257,94.197c0,0.3-0.257,0.545-0.571,0.545h-13.774
			c-0.312,0-0.566-0.245-0.566-0.545V35.585c0-0.3,0.245-0.616,0.544-0.7c0,0,2.433-0.688,6.812-0.688
			c4.177,0,7.006,0.705,7.006,0.705c0.301,0.075,0.551,0.383,0.551,0.683V94.197z"/>
		<path clip-path="url(#SVGID_2_)" fill="#FFFFFF" d="M870.978,94.197c0,0.3-0.254,0.545-0.566,0.545h-13.777
			c-0.311,0-0.567-0.245-0.567-0.545V41.354c0-0.3,0.249-0.606,0.55-0.676c0,0,2.778-0.663,6.906-0.663
			c4.402,0,6.909,0.652,6.909,0.652c0.301,0.077,0.546,0.387,0.546,0.687V94.197z"/>
		<path clip-path="url(#SVGID_2_)" fill="#FFFFFF" d="M888.492,94.197c0,0.3-0.255,0.545-0.565,0.545h-13.578
			c-0.311,0-0.569-0.245-0.569-0.545V35.585c0-0.3,0.251-0.6,0.555-0.667c0,0,3.191-0.696,6.76-0.696
			c4.094,0,6.849,0.681,6.849,0.681c0.303,0.074,0.55,0.382,0.55,0.682V94.197z"/>
		<path clip-path="url(#SVGID_2_)" fill="#FFFFFF" d="M941.832,94.197c0,0.3-0.255,0.545-0.566,0.545h-13.679
			c-0.312,0-0.567-0.245-0.567-0.545V36.161c0-0.299,0.252-0.596,0.557-0.658c0,0,3.123-0.639,6.851-0.639
			c3.879,0,6.851,0.634,6.851,0.634c0.305,0.065,0.555,0.364,0.555,0.663V94.197z"/>
		<path clip-path="url(#SVGID_2_)" fill="#FFFFFF" d="M944.333,94.307c0,0.24,0.205,0.436,0.455,0.436h9.698
			c0.251,0,0.454-0.196,0.454-0.436V41.046c0-0.241-0.198-0.479-0.442-0.53c0,0-2.408-0.501-4.861-0.501
			c-2.298,0-4.858,0.507-4.858,0.507c-0.244,0.047-0.445,0.283-0.445,0.524V94.307z"/>
		<path clip-path="url(#SVGID_2_)" fill="#FFFFFF" d="M921.781,94.416c-0.013,0.181-0.172,0.319-0.36,0.311l-5.115-0.259
			c-0.188-0.008-0.333-0.163-0.323-0.343l2.871-52.632c0.01-0.179,0.168-0.354,0.353-0.388c0,0,1.132-0.206,2.652-0.116
			c1.567,0.091,2.485,0.37,2.485,0.37c0.18,0.056,0.317,0.246,0.306,0.426L921.781,94.416z"/>
		<path clip-path="url(#SVGID_2_)" fill="#FFFFFF" d="M903.41,93.725c-0.02,0.179,0.117,0.341,0.304,0.359l6.189,0.624
			c0.185,0.019,0.352-0.11,0.376-0.29l5.693-52.064c0.021-0.179-0.107-0.374-0.286-0.433c0,0-1.303-0.431-2.901-0.586
			c-1.786-0.175-3.304-0.032-3.304-0.032c-0.188,0.017-0.357,0.179-0.374,0.357L903.41,93.725z"/>
		<path clip-path="url(#SVGID_2_)" fill="#FFFFFF" d="M853.998,93.92c0.015,0.179-0.127,0.336-0.313,0.348l-6.21,0.418
			c-0.187,0.012-0.352-0.125-0.364-0.305l-3.801-52.223c-0.013-0.18,0.121-0.38,0.295-0.444c0,0,1.128-0.414,3.08-0.545
			c2.126-0.145,3.163,0.118,3.163,0.118c0.18,0.045,0.337,0.23,0.352,0.408L853.998,93.92z"/>
		<path clip-path="url(#SVGID_2_)" fill="#FFFFFF" d="M890.693,94.307c0,0.24,0.206,0.436,0.455,0.436h9.7
			c0.25,0,0.453-0.196,0.453-0.436V41.101c0-0.24-0.195-0.492-0.436-0.559c0,0-1.84-0.527-4.869-0.527
			c-2.995,0-4.867,0.528-4.867,0.528c-0.239,0.066-0.437,0.318-0.437,0.558V94.307z"/>
		<path clip-path="url(#SVGID_2_)" fill="#FFFFFF" d="M303.356,305.248c0,0.181,0.153,0.326,0.343,0.326h6.324
			c0.185,0,0.34-0.146,0.34-0.326v-53.641c0-0.178-0.147-0.369-0.328-0.423c0,0-1.132-0.338-3.175-0.338
			c-2.025,0-3.178,0.341-3.178,0.341c-0.178,0.051-0.326,0.242-0.326,0.42V305.248z"/>
		<path clip-path="url(#SVGID_2_)" fill="#FFFFFF" d="M286.243,305.029c0,0.301,0.258,0.545,0.571,0.545h13.775
			c0.311,0,0.566-0.244,0.566-0.545v-58.611c0-0.301-0.245-0.616-0.542-0.7c0,0-2.434-0.688-6.814-0.688
			c-4.175,0-7.006,0.705-7.006,0.705c-0.3,0.075-0.55,0.383-0.55,0.684V305.029z"/>
		<path clip-path="url(#SVGID_2_)" fill="#FFFFFF" d="M256.522,305.029c0,0.301,0.254,0.545,0.567,0.545h13.778
			c0.309,0,0.567-0.244,0.567-0.545v-52.844c0-0.3-0.25-0.605-0.551-0.676c0,0-2.778-0.663-6.906-0.663
			c-4.402,0-6.909,0.651-6.909,0.651c-0.3,0.078-0.546,0.388-0.546,0.688V305.029z"/>
		<path clip-path="url(#SVGID_2_)" fill="#FFFFFF" d="M239.009,305.029c0,0.301,0.254,0.545,0.565,0.545h13.579
			c0.31,0,0.568-0.244,0.568-0.545v-58.611c0-0.301-0.251-0.601-0.554-0.668c0,0-3.191-0.695-6.76-0.695
			c-4.095,0-6.849,0.681-6.849,0.681c-0.301,0.074-0.549,0.382-0.549,0.683V305.029z"/>
		<path clip-path="url(#SVGID_2_)" fill="#FFFFFF" d="M185.668,305.029c0,0.301,0.255,0.545,0.567,0.545h13.679
			c0.312,0,0.567-0.244,0.567-0.545v-58.037c0-0.299-0.252-0.596-0.558-0.658c0,0-3.122-0.639-6.849-0.639
			c-3.878,0-6.851,0.635-6.851,0.635c-0.305,0.064-0.555,0.363-0.555,0.662V305.029z"/>
		<path clip-path="url(#SVGID_2_)" fill="#FFFFFF" d="M183.166,305.139c0,0.24-0.204,0.436-0.453,0.436h-9.698
			c-0.252,0-0.457-0.195-0.457-0.436v-53.261c0-0.241,0.201-0.479,0.444-0.53c0,0,2.408-0.501,4.861-0.501
			c2.298,0,4.86,0.507,4.86,0.507c0.243,0.047,0.443,0.283,0.443,0.524V305.139z"/>
		<path clip-path="url(#SVGID_2_)" fill="#FFFFFF" d="M205.721,305.248c0.011,0.181,0.17,0.318,0.359,0.311l5.115-0.259
			c0.189-0.008,0.333-0.163,0.323-0.343l-2.871-52.633c-0.01-0.178-0.168-0.354-0.352-0.387c0,0-1.133-0.207-2.653-0.117
			c-1.567,0.092-2.486,0.371-2.486,0.371c-0.179,0.055-0.316,0.246-0.305,0.426L205.721,305.248z"/>
		<path clip-path="url(#SVGID_2_)" fill="#FFFFFF" d="M224.091,304.557c0.02,0.18-0.117,0.342-0.304,0.359l-6.19,0.624
			c-0.183,0.019-0.351-0.11-0.374-0.29l-5.695-52.064c-0.02-0.179,0.108-0.373,0.286-0.433c0,0,1.302-0.431,2.902-0.586
			c1.786-0.175,3.304-0.032,3.304-0.032c0.187,0.018,0.356,0.18,0.374,0.357L224.091,304.557z"/>
		<path clip-path="url(#SVGID_2_)" fill="#FFFFFF" d="M273.502,304.752c-0.012,0.18,0.128,0.336,0.314,0.348l6.21,0.418
			c0.187,0.013,0.351-0.125,0.364-0.305l3.801-52.223c0.013-0.18-0.12-0.38-0.294-0.443c0,0-1.128-0.414-3.081-0.546
			c-2.126-0.146-3.162,0.118-3.162,0.118c-0.18,0.045-0.338,0.23-0.352,0.408L273.502,304.752z"/>
		<path clip-path="url(#SVGID_2_)" fill="#FFFFFF" d="M236.807,305.139c0,0.24-0.205,0.436-0.454,0.436h-9.701
			c-0.25,0-0.453-0.195-0.453-0.436v-53.205c0-0.24,0.195-0.492,0.435-0.56c0,0,1.84-0.527,4.869-0.527
			c2.995,0,4.867,0.528,4.867,0.528c0.24,0.066,0.437,0.318,0.437,0.559V305.139z"/>
		<path clip-path="url(#SVGID_2_)" fill="#FFFFFF" d="M946.796,305.248c0,0.181,0.152,0.326,0.343,0.326h6.324
			c0.185,0,0.34-0.146,0.34-0.326v-53.641c0-0.178-0.146-0.369-0.328-0.423c0,0-1.132-0.338-3.175-0.338
			c-2.025,0-3.179,0.341-3.179,0.341c-0.178,0.051-0.325,0.242-0.325,0.42V305.248z"/>
		<path clip-path="url(#SVGID_2_)" fill="#FFFFFF" d="M929.683,305.029c0,0.301,0.258,0.545,0.571,0.545h13.774
			c0.311,0,0.566-0.244,0.566-0.545v-58.611c0-0.301-0.245-0.616-0.543-0.7c0,0-2.434-0.688-6.813-0.688
			c-4.175,0-7.006,0.705-7.006,0.705c-0.3,0.075-0.55,0.383-0.55,0.684V305.029z"/>
		<path clip-path="url(#SVGID_2_)" fill="#FFFFFF" d="M899.961,305.029c0,0.301,0.254,0.545,0.567,0.545h13.778
			c0.309,0,0.567-0.244,0.567-0.545v-52.844c0-0.3-0.251-0.605-0.552-0.676c0,0-2.778-0.663-6.905-0.663
			c-4.402,0-6.909,0.651-6.909,0.651c-0.301,0.078-0.547,0.388-0.547,0.688V305.029z"/>
		<path clip-path="url(#SVGID_2_)" fill="#FFFFFF" d="M882.449,305.029c0,0.301,0.254,0.545,0.564,0.545h13.579
			c0.311,0,0.568-0.244,0.568-0.545v-58.611c0-0.301-0.251-0.601-0.554-0.668c0,0-3.192-0.695-6.76-0.695
			c-4.095,0-6.85,0.681-6.85,0.681c-0.302,0.074-0.549,0.382-0.549,0.683V305.029z"/>
		<path clip-path="url(#SVGID_2_)" fill="#FFFFFF" d="M829.109,305.029c0,0.301,0.254,0.545,0.566,0.545h13.679
			c0.312,0,0.567-0.244,0.567-0.545v-58.037c0-0.299-0.253-0.596-0.558-0.658c0,0-3.122-0.639-6.85-0.639
			c-3.878,0-6.851,0.635-6.851,0.635c-0.305,0.064-0.555,0.363-0.555,0.662V305.029z"/>
		<path clip-path="url(#SVGID_2_)" fill="#FFFFFF" d="M826.607,305.139c0,0.24-0.205,0.436-0.454,0.436h-9.698
			c-0.252,0-0.456-0.195-0.456-0.436v-53.261c0-0.241,0.2-0.479,0.442-0.53c0,0,2.408-0.501,4.862-0.501
			c2.297,0,4.859,0.507,4.859,0.507c0.243,0.047,0.444,0.283,0.444,0.524V305.139z"/>
		<path clip-path="url(#SVGID_2_)" fill="#FFFFFF" d="M849.162,305.248c0.011,0.181,0.17,0.318,0.358,0.311l5.115-0.259
			c0.188-0.008,0.332-0.163,0.323-0.343l-2.871-52.633c-0.011-0.178-0.168-0.354-0.353-0.387c0,0-1.133-0.207-2.653-0.117
			c-1.566,0.092-2.485,0.371-2.485,0.371c-0.179,0.055-0.316,0.246-0.305,0.426L849.162,305.248z"/>
		<path clip-path="url(#SVGID_2_)" fill="#FFFFFF" d="M867.531,304.557c0.02,0.18-0.117,0.342-0.304,0.359l-6.19,0.624
			c-0.184,0.019-0.351-0.11-0.374-0.29l-5.695-52.064c-0.02-0.179,0.108-0.373,0.286-0.433c0,0,1.303-0.431,2.901-0.586
			c1.786-0.175,3.305-0.032,3.305-0.032c0.188,0.018,0.356,0.18,0.374,0.357L867.531,304.557z"/>
		<path clip-path="url(#SVGID_2_)" fill="#FFFFFF" d="M916.942,304.752c-0.013,0.18,0.128,0.336,0.313,0.348l6.211,0.418
			c0.187,0.013,0.352-0.125,0.363-0.305l3.802-52.223c0.013-0.18-0.121-0.38-0.295-0.443c0,0-1.128-0.414-3.08-0.546
			c-2.127-0.146-3.162,0.118-3.162,0.118c-0.181,0.045-0.339,0.23-0.353,0.408L916.942,304.752z"/>
		<path clip-path="url(#SVGID_2_)" fill="#FFFFFF" d="M880.248,305.139c0,0.24-0.205,0.436-0.454,0.436h-9.701
			c-0.25,0-0.453-0.195-0.453-0.436v-53.205c0-0.24,0.195-0.492,0.435-0.56c0,0,1.84-0.527,4.869-0.527
			c2.995,0,4.867,0.528,4.867,0.528c0.24,0.066,0.438,0.318,0.438,0.559V305.139z"/>
		<path clip-path="url(#SVGID_2_)" fill="#FFFFFF" d="M791.185,407.379c0,0.182,0.154,0.327,0.344,0.327h6.324
			c0.185,0,0.34-0.146,0.34-0.327v-53.64c0-0.179-0.147-0.37-0.327-0.423c0,0-1.133-0.338-3.176-0.338
			c-2.025,0-3.178,0.34-3.178,0.34c-0.179,0.051-0.327,0.242-0.327,0.421V407.379z"/>
		<path clip-path="url(#SVGID_2_)" fill="#FFFFFF" d="M774.072,407.16c0,0.301,0.259,0.546,0.571,0.546h13.775
			c0.312,0,0.565-0.245,0.565-0.546v-58.611c0-0.3-0.244-0.615-0.542-0.699c0,0-2.433-0.689-6.813-0.689
			c-4.176,0-7.006,0.705-7.006,0.705c-0.302,0.076-0.552,0.384-0.552,0.684V407.16z"/>
		<path clip-path="url(#SVGID_2_)" fill="#FFFFFF" d="M744.351,407.16c0,0.301,0.255,0.546,0.567,0.546h13.778
			c0.309,0,0.566-0.245,0.566-0.546v-52.844c0-0.299-0.25-0.605-0.551-0.676c0,0-2.778-0.662-6.906-0.662
			c-4.401,0-6.907,0.651-6.907,0.651c-0.302,0.077-0.548,0.388-0.548,0.687V407.16z"/>
		<path clip-path="url(#SVGID_2_)" fill="#FFFFFF" d="M726.839,407.16c0,0.301,0.254,0.546,0.564,0.546h13.578
			c0.311,0,0.569-0.245,0.569-0.546v-58.611c0-0.3-0.251-0.6-0.555-0.667c0,0-3.191-0.696-6.76-0.696
			c-4.094,0-6.849,0.682-6.849,0.682c-0.303,0.074-0.549,0.382-0.549,0.682V407.16z"/>
		<path clip-path="url(#SVGID_2_)" fill="#FFFFFF" d="M673.498,407.16c0,0.301,0.256,0.546,0.567,0.546h13.679
			c0.313,0,0.567-0.245,0.567-0.546v-58.036c0-0.3-0.252-0.597-0.558-0.658c0,0-3.122-0.64-6.85-0.64
			c-3.878,0-6.851,0.635-6.851,0.635c-0.306,0.064-0.556,0.363-0.556,0.663V407.16z"/>
		<path clip-path="url(#SVGID_2_)" fill="#FFFFFF" d="M670.996,407.27c0,0.24-0.203,0.437-0.452,0.437h-9.699
			c-0.252,0-0.456-0.196-0.456-0.437v-53.26c0-0.242,0.2-0.479,0.443-0.53c0,0,2.407-0.501,4.861-0.501
			c2.298,0,4.859,0.507,4.859,0.507c0.244,0.047,0.443,0.282,0.443,0.524V407.27z"/>
		<path clip-path="url(#SVGID_2_)" fill="#FFFFFF" d="M693.55,407.379c0.012,0.182,0.17,0.319,0.358,0.311l5.116-0.258
			c0.189-0.008,0.332-0.164,0.323-0.344l-2.871-52.632c-0.011-0.179-0.168-0.354-0.354-0.388c0,0-1.132-0.206-2.653-0.116
			c-1.565,0.091-2.483,0.37-2.483,0.37c-0.18,0.056-0.317,0.246-0.305,0.426L693.55,407.379z"/>
		<path clip-path="url(#SVGID_2_)" fill="#FFFFFF" d="M711.92,406.688c0.021,0.18-0.117,0.342-0.304,0.359l-6.19,0.625
			c-0.183,0.019-0.351-0.111-0.374-0.291l-5.695-52.063c-0.02-0.179,0.108-0.374,0.286-0.433c0,0,1.304-0.432,2.902-0.586
			c1.786-0.176,3.304-0.033,3.304-0.033c0.188,0.018,0.356,0.18,0.374,0.357L711.92,406.688z"/>
		<path clip-path="url(#SVGID_2_)" fill="#FFFFFF" d="M761.332,406.883c-0.013,0.18,0.128,0.337,0.313,0.349l6.211,0.418
			c0.187,0.013,0.351-0.125,0.363-0.305l3.802-52.224c0.012-0.18-0.121-0.379-0.294-0.443c0,0-1.129-0.414-3.081-0.545
			c-2.126-0.146-3.162,0.117-3.162,0.117c-0.181,0.045-0.339,0.23-0.353,0.408L761.332,406.883z"/>
		<path clip-path="url(#SVGID_2_)" fill="#FFFFFF" d="M724.637,407.27c0,0.24-0.206,0.437-0.455,0.437h-9.7
			c-0.25,0-0.453-0.196-0.453-0.437v-53.205c0-0.24,0.194-0.492,0.436-0.559c0,0,1.84-0.527,4.868-0.527
			c2.996,0,4.868,0.527,4.868,0.527c0.239,0.066,0.437,0.318,0.437,0.559V407.27z"/>
		<path clip-path="url(#SVGID_2_)" fill="#FFFFFF" d="M343.829,407.379c0,0.182-0.155,0.327-0.342,0.327h-6.325
			c-0.186,0-0.34-0.146-0.34-0.327v-53.64c0-0.179,0.147-0.37,0.327-0.423c0,0,1.132-0.338,3.176-0.338
			c2.025,0,3.177,0.34,3.177,0.34c0.179,0.051,0.327,0.242,0.327,0.421V407.379z"/>
		<path clip-path="url(#SVGID_2_)" fill="#FFFFFF" d="M360.941,407.16c0,0.301-0.257,0.546-0.57,0.546h-13.776
			c-0.311,0-0.566-0.245-0.566-0.546v-58.611c0-0.3,0.245-0.615,0.543-0.699c0,0,2.434-0.689,6.812-0.689
			c4.177,0,7.007,0.705,7.007,0.705c0.3,0.076,0.55,0.384,0.55,0.684V407.16z"/>
		<path clip-path="url(#SVGID_2_)" fill="#FFFFFF" d="M390.663,407.16c0,0.301-0.255,0.546-0.567,0.546h-13.778
			c-0.31,0-0.567-0.245-0.567-0.546v-52.844c0-0.299,0.25-0.605,0.55-0.676c0,0,2.778-0.662,6.907-0.662
			c4.402,0,6.907,0.651,6.907,0.651c0.302,0.077,0.548,0.388,0.548,0.687V407.16z"/>
		<path clip-path="url(#SVGID_2_)" fill="#FFFFFF" d="M408.176,407.16c0,0.301-0.255,0.546-0.565,0.546h-13.579
			c-0.311,0-0.568-0.245-0.568-0.546v-58.611c0-0.3,0.252-0.6,0.553-0.667c0,0,3.192-0.696,6.761-0.696
			c4.094,0,6.85,0.682,6.85,0.682c0.301,0.074,0.548,0.382,0.548,0.682V407.16z"/>
		<path clip-path="url(#SVGID_2_)" fill="#FFFFFF" d="M461.517,407.16c0,0.301-0.256,0.546-0.567,0.546h-13.68
			c-0.311,0-0.566-0.245-0.566-0.546v-58.036c0-0.3,0.252-0.597,0.557-0.658c0,0,3.123-0.64,6.848-0.64
			c3.88,0,6.853,0.635,6.853,0.635c0.305,0.064,0.555,0.363,0.555,0.663V407.16z"/>
		<path clip-path="url(#SVGID_2_)" fill="#FFFFFF" d="M464.019,407.27c0,0.24,0.203,0.437,0.454,0.437h9.698
			c0.252,0,0.454-0.196,0.454-0.437v-53.26c0-0.242-0.199-0.479-0.443-0.53c0,0-2.406-0.501-4.861-0.501
			c-2.296,0-4.858,0.507-4.858,0.507c-0.245,0.047-0.444,0.282-0.444,0.524V407.27z"/>
		<path clip-path="url(#SVGID_2_)" fill="#FFFFFF" d="M441.464,407.379c-0.011,0.182-0.17,0.319-0.36,0.311l-5.114-0.258
			c-0.189-0.008-0.333-0.164-0.324-0.342l2.872-52.634c0.009-0.179,0.168-0.354,0.352-0.388c0,0,1.132-0.206,2.653-0.116
			c1.567,0.091,2.486,0.37,2.486,0.37c0.178,0.056,0.315,0.246,0.305,0.426L441.464,407.379z"/>
		<path clip-path="url(#SVGID_2_)" fill="#FFFFFF" d="M423.095,406.688c-0.021,0.18,0.117,0.342,0.303,0.359l6.191,0.625
			c0.182,0.019,0.351-0.111,0.373-0.291l5.695-52.063c0.021-0.179-0.108-0.374-0.286-0.433c0,0-1.302-0.432-2.902-0.586
			c-1.785-0.176-3.304-0.033-3.304-0.033c-0.188,0.018-0.355,0.18-0.374,0.357L423.095,406.688z"/>
		<path clip-path="url(#SVGID_2_)" fill="#FFFFFF" d="M373.683,406.884c0.013,0.179-0.128,0.337-0.314,0.347l-6.211,0.418
			c-0.186,0.013-0.35-0.123-0.364-0.303l-3.8-52.224c-0.013-0.181,0.121-0.38,0.294-0.444c0,0,1.128-0.414,3.08-0.545
			c2.127-0.145,3.163,0.117,3.163,0.117c0.179,0.046,0.338,0.23,0.352,0.408L373.683,406.884z"/>
		<path clip-path="url(#SVGID_2_)" fill="#FFFFFF" d="M410.378,407.27c0,0.24,0.205,0.437,0.454,0.437h9.701
			c0.25,0,0.453-0.196,0.453-0.437v-53.205c0-0.24-0.196-0.492-0.435-0.559c0,0-1.841-0.527-4.869-0.527
			c-2.996,0-4.867,0.527-4.867,0.527c-0.241,0.066-0.437,0.318-0.437,0.559V407.27z"/>
		<path clip-path="url(#SVGID_2_)" fill="#FFFFFF" d="M197.59,197.227c0,0.3-0.255,0.545-0.567,0.545h-13.778
			c-0.31,0-0.567-0.245-0.567-0.545v-52.844c0-0.3,0.25-0.606,0.55-0.676c0,0,2.778-0.663,6.907-0.663
			c4.401,0,6.906,0.652,6.906,0.652c0.303,0.077,0.549,0.387,0.549,0.687V197.227z"/>
		<path clip-path="url(#SVGID_2_)" fill="#FFFFFF" d="M215.102,197.227c0,0.3-0.254,0.545-0.565,0.545h-13.578
			c-0.312,0-0.568-0.245-0.568-0.545v-58.612c0-0.3,0.251-0.6,0.552-0.667c0,0,3.192-0.696,6.761-0.696
			c4.095,0,6.85,0.681,6.85,0.681c0.302,0.074,0.548,0.382,0.548,0.682V197.227z"/>
		<path clip-path="url(#SVGID_2_)" fill="#FFFFFF" d="M180.61,196.95c0.012,0.178-0.128,0.336-0.315,0.347l-6.21,0.418
			c-0.186,0.012-0.351-0.124-0.364-0.304l-3.801-52.223c-0.012-0.18,0.121-0.38,0.295-0.445c0,0,1.128-0.413,3.08-0.544
			c2.127-0.145,3.162,0.117,3.162,0.117c0.18,0.046,0.339,0.23,0.353,0.408L180.61,196.95z"/>
		<path clip-path="url(#SVGID_2_)" fill="#FFFFFF" d="M217.304,197.336c0,0.24,0.206,0.436,0.455,0.436h9.701
			c0.249,0,0.452-0.196,0.452-0.436v-53.206c0-0.24-0.196-0.492-0.435-0.559c0,0-1.841-0.527-4.868-0.527
			c-2.997,0-4.868,0.528-4.868,0.528c-0.24,0.066-0.437,0.318-0.437,0.558V197.336z"/>
		<path clip-path="url(#SVGID_2_)" fill="#FFFFFF" d="M927.271,407.16c0,0.301,0.256,0.546,0.567,0.546h13.778
			c0.31,0,0.567-0.245,0.567-0.546v-52.844c0-0.299-0.251-0.605-0.551-0.676c0,0-2.778-0.662-6.907-0.662
			c-4.401,0-6.906,0.651-6.906,0.651c-0.303,0.077-0.549,0.388-0.549,0.687V407.16z"/>
		<path clip-path="url(#SVGID_2_)" fill="#FFFFFF" d="M909.759,407.16c0,0.301,0.255,0.546,0.564,0.546h13.579
			c0.312,0,0.568-0.245,0.568-0.546v-58.611c0-0.3-0.251-0.6-0.553-0.667c0,0-3.192-0.696-6.763-0.696
			c-4.094,0-6.849,0.682-6.849,0.682c-0.301,0.074-0.548,0.382-0.548,0.682V407.16z"/>
		<path clip-path="url(#SVGID_2_)" fill="#FFFFFF" d="M944.251,406.884c-0.012,0.179,0.128,0.337,0.314,0.347l6.211,0.418
			c0.186,0.013,0.351-0.123,0.363-0.303l3.801-52.224c0.013-0.181-0.121-0.38-0.295-0.444c0,0-1.128-0.414-3.08-0.545
			c-2.127-0.145-3.162,0.117-3.162,0.117c-0.18,0.046-0.34,0.23-0.353,0.408L944.251,406.884z"/>
		<path clip-path="url(#SVGID_2_)" fill="#FFFFFF" d="M907.557,407.27c0,0.24-0.206,0.437-0.455,0.437h-9.7
			c-0.25,0-0.453-0.196-0.453-0.437v-53.205c0-0.24,0.196-0.492,0.435-0.559c0,0,1.842-0.527,4.87-0.527
			c2.997,0,4.867,0.527,4.867,0.527c0.24,0.066,0.437,0.318,0.437,0.559V407.27z"/>
		<path clip-path="url(#SVGID_2_)" fill="#FFFFFF" d="M88.127,303.362c0,0.3,0.258,0.546,0.571,0.546h13.775
			c0.311,0,0.566-0.246,0.566-0.546V244.75c0-0.299-0.245-0.615-0.542-0.699c0,0-2.435-0.688-6.813-0.688
			c-4.176,0-7.006,0.705-7.006,0.705c-0.301,0.075-0.551,0.384-0.551,0.683V303.362z"/>
		<path clip-path="url(#SVGID_2_)" fill="#FFFFFF" d="M58.406,303.362c0,0.3,0.254,0.546,0.567,0.546h13.779
			c0.308,0,0.567-0.246,0.567-0.546v-52.844c0-0.3-0.251-0.606-0.552-0.676c0,0-2.778-0.663-6.906-0.663
			c-4.402,0-6.908,0.652-6.908,0.652c-0.301,0.076-0.547,0.387-0.547,0.687V303.362z"/>
		<path clip-path="url(#SVGID_2_)" fill="#FFFFFF" d="M40.893,303.362c0,0.3,0.254,0.546,0.565,0.546h13.578
			c0.311,0,0.569-0.246,0.569-0.546V244.75c0-0.299-0.251-0.6-0.554-0.666c0,0-3.192-0.696-6.76-0.696
			c-4.094,0-6.849,0.681-6.849,0.681c-0.302,0.074-0.549,0.383-0.549,0.682V303.362z"/>
		<path clip-path="url(#SVGID_2_)" fill="#FFFFFF" d="M7.605,303.58c0.012,0.182,0.17,0.32,0.359,0.312l5.115-0.259
			c0.189-0.008,0.333-0.163,0.323-0.343l-2.87-52.632c-0.011-0.18-0.169-0.354-0.353-0.389c0,0-1.132-0.205-2.653-0.115
			c-1.567,0.09-2.486,0.369-2.486,0.369c-0.179,0.057-0.316,0.246-0.305,0.426L7.605,303.58z"/>
		<path clip-path="url(#SVGID_2_)" fill="#FFFFFF" d="M25.975,302.89c0.02,0.179-0.117,0.341-0.304,0.359l-6.19,0.624
			c-0.184,0.02-0.351-0.11-0.374-0.29l-5.695-52.063c-0.02-0.18,0.108-0.375,0.286-0.434c0,0,1.302-0.432,2.901-0.586
			c1.786-0.176,3.305-0.032,3.305-0.032c0.187,0.017,0.356,0.179,0.374,0.356L25.975,302.89z"/>
		<path clip-path="url(#SVGID_2_)" fill="#FFFFFF" d="M75.386,303.085c-0.012,0.179,0.128,0.337,0.314,0.349l6.211,0.418
			c0.186,0.012,0.35-0.125,0.363-0.305l3.801-52.224c0.013-0.181-0.12-0.38-0.294-0.444c0,0-1.128-0.414-3.08-0.545
			c-2.127-0.145-3.162,0.118-3.162,0.118c-0.182,0.045-0.339,0.229-0.354,0.408L75.386,303.085z"/>
		<path clip-path="url(#SVGID_2_)" fill="#FFFFFF" d="M38.691,303.472c0,0.24-0.205,0.437-0.454,0.437h-9.7
			c-0.251,0-0.455-0.196-0.455-0.437v-53.206c0-0.24,0.196-0.492,0.436-0.559c0,0,1.841-0.527,4.869-0.527
			c2.996,0,4.867,0.528,4.867,0.528c0.241,0.065,0.437,0.317,0.437,0.558V303.472z"/>
		<path clip-path="url(#SVGID_2_)" fill="#FFFFFF" d="M714.444,197.561c0,0.3-0.258,0.545-0.571,0.545h-13.774
			c-0.312,0-0.566-0.245-0.566-0.545v-58.612c0-0.3,0.245-0.616,0.543-0.7c0,0,2.435-0.688,6.813-0.688
			c4.175,0,7.006,0.705,7.006,0.705c0.3,0.075,0.55,0.383,0.55,0.683V197.561z"/>
		<path clip-path="url(#SVGID_2_)" fill="#FFFFFF" d="M744.166,197.561c0,0.3-0.254,0.545-0.567,0.545H729.82
			c-0.309,0-0.566-0.245-0.566-0.545v-52.844c0-0.3,0.25-0.606,0.551-0.676c0,0,2.777-0.663,6.906-0.663
			c4.401,0,6.908,0.652,6.908,0.652c0.301,0.077,0.547,0.387,0.547,0.687V197.561z"/>
		<path clip-path="url(#SVGID_2_)" fill="#FFFFFF" d="M761.678,197.561c0,0.3-0.254,0.545-0.565,0.545h-13.578
			c-0.311,0-0.568-0.245-0.568-0.545v-58.612c0-0.3,0.251-0.6,0.554-0.667c0,0,3.192-0.696,6.76-0.696
			c4.095,0,6.85,0.681,6.85,0.681c0.301,0.074,0.549,0.382,0.549,0.682V197.561z"/>
		<path clip-path="url(#SVGID_2_)" fill="#FFFFFF" d="M794.966,197.779c-0.012,0.181-0.17,0.319-0.359,0.311l-5.114-0.259
			c-0.189-0.008-0.333-0.163-0.323-0.343l2.87-52.632c0.01-0.179,0.169-0.354,0.353-0.388c0,0,1.132-0.206,2.653-0.116
			c1.567,0.091,2.486,0.37,2.486,0.37c0.179,0.056,0.315,0.246,0.305,0.426L794.966,197.779z"/>
		<path clip-path="url(#SVGID_2_)" fill="#FFFFFF" d="M776.596,197.088c-0.021,0.179,0.117,0.341,0.304,0.359l6.19,0.624
			c0.184,0.019,0.351-0.11,0.374-0.29l5.694-52.064c0.021-0.179-0.107-0.374-0.285-0.433c0,0-1.303-0.431-2.901-0.586
			c-1.786-0.175-3.305-0.032-3.305-0.032c-0.188,0.017-0.356,0.179-0.374,0.357L776.596,197.088z"/>
		<path clip-path="url(#SVGID_2_)" fill="#FFFFFF" d="M727.185,197.283c0.013,0.179-0.128,0.336-0.313,0.348l-6.211,0.418
			c-0.187,0.012-0.351-0.125-0.363-0.305l-3.801-52.223c-0.013-0.18,0.12-0.38,0.293-0.444c0,0,1.129-0.414,3.081-0.545
			c2.127-0.145,3.162,0.118,3.162,0.118c0.181,0.045,0.339,0.23,0.353,0.408L727.185,197.283z"/>
		<path clip-path="url(#SVGID_2_)" fill="#FFFFFF" d="M763.88,197.67c0,0.24,0.205,0.436,0.454,0.436h9.7
			c0.251,0,0.454-0.196,0.454-0.436v-53.206c0-0.24-0.195-0.492-0.436-0.559c0,0-1.841-0.527-4.869-0.527
			c-2.996,0-4.867,0.528-4.867,0.528c-0.24,0.066-0.437,0.318-0.437,0.558V197.67z"/>
		<path clip-path="url(#SVGID_2_)" fill="#FFFFFF" d="M296.966,407.16c0,0.301,0.253,0.546,0.567,0.546h13.778
			c0.309,0,0.568-0.245,0.568-0.546v-52.844c0-0.299-0.251-0.605-0.552-0.676c0,0-2.778-0.662-6.906-0.662
			c-4.401,0-6.909,0.651-6.909,0.651c-0.3,0.077-0.546,0.388-0.546,0.687V407.16z"/>
		<path clip-path="url(#SVGID_2_)" fill="#FFFFFF" d="M279.453,407.16c0,0.301,0.254,0.546,0.565,0.546h13.579
			c0.311,0,0.569-0.245,0.569-0.546v-58.611c0-0.3-0.252-0.6-0.554-0.667c0,0-3.193-0.696-6.761-0.696
			c-4.094,0-6.849,0.682-6.849,0.682c-0.301,0.074-0.549,0.382-0.549,0.682V407.16z"/>
		<path clip-path="url(#SVGID_2_)" fill="#FFFFFF" d="M277.251,407.27c0,0.24-0.205,0.437-0.454,0.437h-9.701
			c-0.25,0-0.453-0.196-0.453-0.437v-53.205c0-0.24,0.195-0.492,0.435-0.559c0,0,1.841-0.527,4.869-0.527
			c2.996,0,4.867,0.527,4.867,0.527c0.24,0.066,0.437,0.318,0.437,0.559V407.27z"/>
		<path clip-path="url(#SVGID_2_)" fill="#FFFFFF" d="M766.784,303.35c0,0.3-0.255,0.545-0.567,0.545h-13.778
			c-0.309,0-0.567-0.245-0.567-0.545v-52.844c0-0.301,0.25-0.606,0.551-0.676c0,0,2.779-0.664,6.906-0.664
			c4.401,0,6.908,0.652,6.908,0.652c0.302,0.077,0.548,0.387,0.548,0.688V303.35z"/>
		<path clip-path="url(#SVGID_2_)" fill="#FFFFFF" d="M784.295,303.35c0,0.3-0.254,0.545-0.565,0.545h-13.577
			c-0.312,0-0.569-0.245-0.569-0.545v-58.612c0-0.3,0.251-0.601,0.554-0.667c0,0,3.192-0.695,6.761-0.695
			c4.095,0,6.85,0.68,6.85,0.68c0.301,0.074,0.548,0.383,0.548,0.683V303.35z"/>
		<path clip-path="url(#SVGID_2_)" fill="#FFFFFF" d="M786.498,303.459c0,0.24,0.206,0.436,0.455,0.436h9.7
			c0.25,0,0.453-0.195,0.453-0.436v-53.206c0-0.24-0.195-0.492-0.436-0.56c0,0-1.841-0.527-4.869-0.527
			c-2.996,0-4.867,0.529-4.867,0.529c-0.239,0.065-0.437,0.317-0.437,0.558V303.459z"/>
	</g>
</g>
</svg>
