<?xml version="1.0" encoding="utf-8"?>
<!-- Generator: Adobe Illustrator 15.1.0, SVG Export Plug-In . SVG Version: 6.00 Build 0)  -->
<!DOCTYPE svg PUBLIC "-//W3C//DTD SVG 1.1//EN" "http://www.w3.org/Graphics/SVG/1.1/DTD/svg11.dtd">
<svg version="1.1" id="Livello_1" xmlns="http://www.w3.org/2000/svg" xmlns:xlink="http://www.w3.org/1999/xlink" x="0px" y="0px"
	 width="170.597px" height="119.5px" viewBox="0 0 170.597 119.5" enable-background="new 0 0 170.597 119.5" xml:space="preserve">
<g>
	<path fill="#FFFFFF" d="M159.755,27.967c-5.29,0-15.901-0.224-27.715-1.727c-21.856-2.781-37.562-8.421-46.716-16.772
		c-9.156,8.351-24.862,13.991-46.718,16.772c-16.761,2.133-31.111,1.691-31.254,1.687c-0.565-0.02-1.036-0.442-1.111-1.003
		c-0.078-0.561,0.26-1.095,0.799-1.265L84.833,1.054c0.227-0.071,0.47-0.071,0.697,0l78.077,24.605
		c0.539,0.169,0.877,0.703,0.801,1.264c-0.078,0.56-0.548,0.984-1.113,1.004C163.254,27.927,161.971,27.967,159.755,27.967
		 M86.598,7.485c16.399,15.303,53.192,17.776,69.081,18.109L85.182,3.379l-70.24,22.215c15.877-0.332,52.703-2.802,69.107-18.109
		c0.045-0.207,0.147-0.402,0.305-0.564c0.264-0.268,0.622-0.382,0.971-0.338c0.344-0.041,0.706,0.071,0.968,0.338
		C86.453,7.083,86.555,7.278,86.598,7.485"/>
	<path fill="#FFFFFF" d="M168.719,29.564c-0.115,0-0.232-0.017-0.347-0.053L85.184,3.379L2.563,29.51
		c-0.611,0.193-1.265-0.145-1.458-0.756c-0.195-0.612,0.145-1.264,0.756-1.457L84.833,1.053c0.227-0.071,0.47-0.071,0.697,0
		l83.537,26.242c0.611,0.191,0.951,0.843,0.76,1.456C169.672,29.247,169.212,29.564,168.719,29.564"/>
	<path fill="#FFFFFF" d="M157.429,106.733c0,0.218,0.177,0.396,0.394,0.396h7.339c0.216,0,0.394-0.178,0.394-0.396V41.951
		c0-0.216-0.171-0.448-0.377-0.512c0,0-1.315-0.408-3.687-0.408c-2.35,0-3.687,0.41-3.687,0.41
		c-0.208,0.064-0.377,0.295-0.377,0.511V106.733z"/>
	<path fill="#FFFFFF" d="M137.573,106.47c0,0.363,0.296,0.659,0.658,0.659h15.986c0.359,0,0.656-0.296,0.656-0.659V35.68
		c0-0.363-0.284-0.742-0.63-0.845c0,0-2.822-0.83-7.902-0.83c-4.848,0-8.131,0.85-8.131,0.85c-0.351,0.091-0.637,0.461-0.637,0.824
		V106.47z"/>
	<path fill="#FFFFFF" d="M103.086,106.47c0,0.363,0.297,0.659,0.658,0.659h15.984c0.364,0,0.658-0.296,0.658-0.659V42.647
		c0-0.363-0.286-0.731-0.637-0.818c0,0-3.221-0.799-8.012-0.799c-5.108,0-8.017,0.786-8.017,0.786
		c-0.349,0.094-0.635,0.468-0.635,0.831V106.47z"/>
	<path fill="#FFFFFF" d="M82.766,106.47c0,0.363,0.297,0.659,0.659,0.659h15.752c0.361,0,0.658-0.296,0.658-0.659V35.68
		c0-0.363-0.288-0.724-0.641-0.805c0,0-3.702-0.841-7.843-0.841c-4.752,0-7.945,0.823-7.945,0.823
		c-0.353,0.089-0.639,0.46-0.639,0.823V106.47z"/>
	<path fill="#FFFFFF" d="M20.879,106.47c0,0.363,0.294,0.659,0.656,0.659h15.869c0.362,0,0.658-0.296,0.658-0.659V36.376
		c0-0.362-0.29-0.72-0.643-0.795c0,0-3.624-0.773-7.95-0.773c-4.499,0-7.949,0.767-7.949,0.767
		c-0.353,0.079-0.641,0.439-0.641,0.801V106.47z"/>
	<path fill="#FFFFFF" d="M17.975,106.602c0,0.29-0.236,0.526-0.526,0.526H6.193c-0.291,0-0.526-0.236-0.526-0.526V42.275
		c0-0.29,0.231-0.577,0.515-0.639c0,0,2.792-0.605,5.639-0.605c2.667,0,5.638,0.612,5.638,0.612
		c0.284,0.058,0.516,0.343,0.516,0.633V106.602z"/>
	<path fill="#FFFFFF" d="M44.145,106.734c0.011,0.217,0.199,0.386,0.416,0.374l5.935-0.312c0.219-0.011,0.386-0.197,0.375-0.414
		L47.54,42.816c-0.011-0.216-0.195-0.429-0.41-0.469c0,0-1.313-0.249-3.076-0.142c-1.82,0.112-2.885,0.449-2.885,0.449
		c-0.206,0.065-0.366,0.296-0.355,0.514L44.145,106.734z"/>
	<path fill="#FFFFFF" d="M65.459,105.898c0.021,0.217-0.137,0.412-0.353,0.436l-7.183,0.754c-0.214,0.021-0.409-0.136-0.433-0.352
		l-6.608-62.88c-0.024-0.216,0.125-0.451,0.331-0.522c0,0,1.512-0.519,3.368-0.708c2.071-0.212,3.834-0.039,3.834-0.039
		c0.217,0.021,0.412,0.216,0.436,0.431L65.459,105.898z"/>
	<path fill="#FFFFFF" d="M122.787,106.134c-0.015,0.216,0.149,0.407,0.366,0.421l7.205,0.504c0.217,0.015,0.407-0.149,0.422-0.366
		l4.41-63.073c0.015-0.217-0.139-0.457-0.342-0.536c0,0-1.308-0.5-3.574-0.66c-2.467-0.176-3.667,0.142-3.667,0.142
		c-0.21,0.055-0.394,0.278-0.409,0.495L122.787,106.134z"/>
	<path fill="#FFFFFF" d="M169.436,117.004H2.929c-0.641,0-1.161-0.52-1.161-1.161s0.52-1.161,1.161-1.161h166.507
		c0.641,0,1.161,0.52,1.161,1.161S170.077,117.004,169.436,117.004"/>
	<path fill="#FFFFFF" d="M80.212,106.602c0,0.29-0.236,0.526-0.526,0.526H68.431c-0.29,0-0.526-0.236-0.526-0.526V42.343
		c0-0.291,0.228-0.594,0.505-0.677c0,0,2.136-0.636,5.649-0.636c3.477,0,5.649,0.638,5.649,0.638
		c0.277,0.081,0.504,0.384,0.504,0.675V106.602z"/>
</g>
</svg>
